<svg width="18" height="19" viewBox="0 0 18 19" fill="none" xmlns="http://www.w3.org/2000/svg">
<path d="M17.8405 7.527C17.9475 8.14325 18.0009 8.76763 18 9.3931C18 12.1865 17.0015 14.5484 15.264 16.1471H15.2662C13.7467 17.5507 11.658 18.3633 9.18133 18.3633C6.74629 18.3633 4.41098 17.3959 2.68915 15.6741C0.967316 13.9523 0 11.617 0 9.18193C0 6.74689 0.967316 4.41159 2.68915 2.68975C4.41098 0.967921 6.74629 0.000605837 9.18133 0.000605837C11.4605 -0.026087 13.6616 0.830176 15.3236 2.39005L12.7024 5.01132C11.7548 4.10807 10.4902 3.61345 9.18133 3.63412C6.78615 3.63412 4.75134 5.25003 4.02601 7.426C3.64144 8.56622 3.64144 9.80109 4.02601 10.9413H4.02945C4.75822 13.1138 6.78959 14.7297 9.18477 14.7297C10.422 14.7297 11.4847 14.413 12.3087 13.8529H12.3053C12.7837 13.536 13.193 13.1253 13.5084 12.6458C13.8238 12.1663 14.0388 11.6278 14.1404 11.063H9.18133V7.52815H17.8405V7.527Z" fill="white"/>
</svg>
