<svg width="105" height="118" viewBox="0 0 105 118" fill="none" xmlns="http://www.w3.org/2000/svg">
<g filter="url(#filter0_d_16_266)">
<path fill-rule="evenodd" clip-rule="evenodd" d="M90.1443 17.0725C90.1443 19.3217 88.321 21.145 86.0719 21.145H18.0725C15.8233 21.145 14 19.3217 14 17.0725C14 14.8233 15.8233 13 18.0725 13H86.0719C88.321 13 90.1443 14.8233 90.1443 17.0725Z" fill="white"/>
<path fill-rule="evenodd" clip-rule="evenodd" d="M90.1443 98.9275C90.1443 101.177 88.321 103 86.0719 103H18.0725C15.8233 103 14 101.177 14 98.9275C14 96.6783 15.8233 94.855 18.0725 94.855H86.0719C88.321 94.855 90.1443 96.6783 90.1443 98.9275Z" fill="white"/>
<path d="M60.6384 17.0725L29.2289 57.0483L60.6384 99.8795" stroke="white" stroke-width="8"/>
</g>
<defs>
<filter id="filter0_d_16_266" x="0" y="0" width="104.144" height="118" filterUnits="userSpaceOnUse" color-interpolation-filters="sRGB">
<feFlood flood-opacity="0" result="BackgroundImageFix"/>
<feColorMatrix in="SourceAlpha" type="matrix" values="0 0 0 0 0 0 0 0 0 0 0 0 0 0 0 0 0 0 127 0" result="hardAlpha"/>
<feOffset dy="1"/>
<feGaussianBlur stdDeviation="7"/>
<feComposite in2="hardAlpha" operator="out"/>
<feColorMatrix type="matrix" values="0 0 0 0 1 0 0 0 0 1 0 0 0 0 1 0 0 0 0.55 0"/>
<feBlend mode="normal" in2="BackgroundImageFix" result="effect1_dropShadow_16_266"/>
<feBlend mode="normal" in="SourceGraphic" in2="effect1_dropShadow_16_266" result="shape"/>
</filter>
</defs>
</svg>
