<svg width="19" height="19" viewBox="0 0 19 19" fill="none" xmlns="http://www.w3.org/2000/svg">
<path fill-rule="evenodd" clip-rule="evenodd" d="M9.49999 0C4.256 0 0 4.256 0 9.49999C0 14.744 4.256 19 9.49999 19C14.7345 19 19 14.744 19 9.49999C19 4.256 14.7345 0 9.49999 0ZM15.7747 4.3795C16.9442 5.80363 17.5916 7.58485 17.6094 9.42755C17.341 9.37649 14.6621 8.83024 11.9629 9.16987C11.9011 9.03687 11.8489 8.89199 11.7871 8.74831C11.6221 8.35643 11.4368 7.95506 11.2516 7.57268C14.2393 6.35787 15.6002 4.60631 15.7759 4.37831L15.7747 4.3795ZM9.49999 1.40125C11.5603 1.40125 13.4461 2.17312 14.8794 3.44137C14.7345 3.648 13.5078 5.28556 10.6234 6.36737C9.29337 3.92587 7.82087 1.92612 7.59406 1.61737C8.21881 1.4715 8.85844 1.39897 9.49999 1.40125ZM6.04793 2.16362C7.1353 3.67061 8.13982 5.23568 9.05705 6.85187C5.26537 7.86124 1.91662 7.84106 1.55562 7.84106C1.8167 6.61286 2.35796 5.46157 3.1372 4.47697C3.91643 3.49237 4.91257 2.70108 6.04793 2.16481V2.16362ZM1.38106 9.51187V9.26249C1.73137 9.27437 5.66793 9.32543 9.7173 8.10943C9.95362 8.56187 10.1697 9.02618 10.3764 9.4893L10.0557 9.58193C5.87337 10.9321 3.648 14.6205 3.46156 14.9304C2.12185 13.4432 1.38065 11.5123 1.38106 9.51068V9.51187ZM9.49999 17.6189C7.69683 17.6217 5.94484 17.0196 4.52437 15.9089C4.66687 15.6097 6.31631 12.4367 10.8906 10.8395C10.9119 10.8288 10.9214 10.8288 10.9428 10.8193C11.714 12.81 12.2933 14.8697 12.673 16.9705C11.6707 17.4012 10.5909 17.6219 9.49999 17.6189ZM14.0244 16.2284C13.9412 15.7332 13.5078 13.3641 12.4474 10.4476C14.9922 10.0462 17.2175 10.7053 17.4954 10.7979C17.3223 11.8936 16.9245 12.9416 16.327 13.8761C15.7294 14.8107 14.9451 15.6115 14.0232 16.2284H14.0244Z" fill="white"/>
</svg>
