<svg width="19" height="19" viewBox="0 0 19 19" fill="none" xmlns="http://www.w3.org/2000/svg">
<path d="M9.49999 0C6.92193 0 6.59774 0.011875 5.58481 0.057C4.57187 0.1045 3.88193 0.263625 3.2775 0.49875C2.64348 0.737222 2.06921 1.11129 1.59481 1.59481C1.11159 2.06945 0.737564 2.64366 0.49875 3.2775C0.263625 3.88075 0.103312 4.57187 0.057 5.58124C0.011875 6.59656 0 6.91956 0 9.50118C0 12.0804 0.011875 12.4034 0.057 13.4164C0.1045 14.4281 0.263625 15.118 0.49875 15.7225C0.742187 16.3471 1.06637 16.8767 1.59481 17.4052C2.12206 17.9336 2.65169 18.259 3.27631 18.5012C3.88193 18.7364 4.57068 18.8967 5.58243 18.943C6.59656 18.9881 6.91956 19 9.49999 19C12.0804 19 12.4022 18.9881 13.4164 18.943C14.4269 18.8955 15.1192 18.7364 15.7237 18.5012C16.3573 18.2626 16.9311 17.8886 17.4052 17.4052C17.9336 16.8767 18.2578 16.3471 18.5012 15.7225C18.7352 15.118 18.8955 14.4281 18.943 13.4164C18.9881 12.4034 19 12.0804 19 9.49999C19 6.91956 18.9881 6.59656 18.943 5.58243C18.8955 4.57187 18.7352 3.88075 18.5012 3.2775C18.2625 2.64364 17.8884 2.06943 17.4052 1.59481C16.9309 1.11111 16.3566 0.737016 15.7225 0.49875C15.1169 0.263625 14.4257 0.103312 13.4152 0.057C12.4011 0.011875 12.0792 0 9.49762 0H9.50118H9.49999ZM8.64855 1.71237H9.50118C12.0377 1.71237 12.3381 1.72069 13.3392 1.767C14.2654 1.80856 14.7689 1.96412 15.1038 2.09356C15.5467 2.26575 15.8638 2.47237 16.1963 2.80487C16.5288 3.13737 16.7342 3.45325 16.9064 3.89737C17.037 4.23106 17.1914 4.73456 17.233 5.66081C17.2793 6.66187 17.2888 6.96231 17.2888 9.49762C17.2888 12.0329 17.2793 12.3346 17.233 13.3356C17.1914 14.2619 17.0359 14.7642 16.9064 15.099C16.7541 15.5115 16.511 15.8845 16.1951 16.1904C15.8626 16.5229 15.5467 16.7283 15.1026 16.9005C14.7701 17.0311 14.2666 17.1855 13.3392 17.2282C12.3381 17.2734 12.0377 17.284 9.50118 17.284C6.96468 17.284 6.66306 17.2734 5.662 17.2282C4.73575 17.1855 4.23343 17.0311 3.89856 16.9005C3.4859 16.7484 3.11258 16.5057 2.80606 16.1904C2.48989 15.884 2.24642 15.5107 2.09356 15.0979C1.96412 14.7642 1.80856 14.2607 1.767 13.3344C1.72187 12.3334 1.71237 12.0329 1.71237 9.49524C1.71237 6.95874 1.72187 6.65949 1.767 5.65843C1.80975 4.73218 1.96412 4.22868 2.09475 3.89381C2.26694 3.45087 2.47356 3.13381 2.80606 2.80131C3.13856 2.46881 3.45443 2.26337 3.89856 2.09119C4.23343 1.96056 4.73575 1.80619 5.662 1.76344C6.53837 1.72306 6.87799 1.71119 8.64855 1.71V1.71237ZM14.5718 3.28937C14.4221 3.28937 14.2739 3.31886 14.1355 3.37615C13.9972 3.43344 13.8716 3.51741 13.7657 3.62327C13.6598 3.72913 13.5759 3.8548 13.5186 3.99311C13.4613 4.13142 13.4318 4.27966 13.4318 4.42937C13.4318 4.57908 13.4613 4.72732 13.5186 4.86563C13.5759 5.00394 13.6598 5.12961 13.7657 5.23547C13.8716 5.34133 13.9972 5.4253 14.1355 5.48259C14.2739 5.53988 14.4221 5.56937 14.5718 5.56937C14.8741 5.56937 15.1641 5.44926 15.3779 5.23547C15.5917 5.02168 15.7118 4.73172 15.7118 4.42937C15.7118 4.12702 15.5917 3.83706 15.3779 3.62327C15.1641 3.40948 14.8741 3.28937 14.5718 3.28937ZM9.50118 4.62175C8.85408 4.61165 8.21143 4.73038 7.61066 4.97104C7.00988 5.21169 6.46298 5.56945 6.0018 6.0235C5.54062 6.47754 5.17437 7.01879 4.92437 7.61574C4.67437 8.21269 4.54563 8.8534 4.54563 9.50059C4.54563 10.1478 4.67437 10.7885 4.92437 11.3854C5.17437 11.9824 5.54062 12.5236 6.0018 12.9777C6.46298 13.4317 7.00988 13.7895 7.61066 14.0301C8.21143 14.2708 8.85408 14.3895 9.50118 14.3794C10.7819 14.3594 12.0035 13.8366 12.9021 12.9238C13.8008 12.0111 14.3045 10.7815 14.3045 9.50059C14.3045 8.21966 13.8008 6.99011 12.9021 6.07732C12.0035 5.16454 10.7819 4.64173 9.50118 4.62175ZM9.50118 6.33293C10.3411 6.33293 11.1467 6.6666 11.7406 7.26054C12.3346 7.85448 12.6682 8.66004 12.6682 9.49999C12.6682 10.3399 12.3346 11.1455 11.7406 11.7394C11.1467 12.3334 10.3411 12.6671 9.50118 12.6671C8.66122 12.6671 7.85567 12.3334 7.26173 11.7394C6.66779 11.1455 6.33412 10.3399 6.33412 9.49999C6.33412 8.66004 6.66779 7.85448 7.26173 7.26054C7.85567 6.6666 8.66122 6.33293 9.50118 6.33293Z" fill="white"/>
</svg>
